<svg version="1.1" xmlns="http://www.w3.org/2000/svg" xmlns:xlink="http://www.w3.org/1999/xlink" width="512.000000pt" height="512.000000pt" viewBox="0,0,256,256"><g fill="#9989f9" fill-rule="nonzero" stroke="none" stroke-width="1" stroke-linecap="butt" stroke-linejoin="miter" stroke-miterlimit="10" stroke-dasharray="" stroke-dashoffset="0" font-family="none" font-weight="none" font-size="none" text-anchor="none" style="mix-blend-mode: normal"><g transform="translate(-0.0473,-0.004) scale(0.5,0.5)"><g transform="translate(0,512) scale(0.1,-0.1)"><path d="M1721,4034c-94,-47 -137,-147 -107,-249c11,-37 29,-63 68,-101c29,-28 333,-290 676,-583c342,-293 622,-535 621,-539c0,-4 -277,-243 -615,-532c-777,-663 -740,-629 -759,-693c-54,-181 134,-339 298,-251c59,32 1549,1310 1583,1358c64,90 51,196 -33,278c-26,25 -382,331 -790,680c-556,476 -751,637 -781,646c-60,18 -103,14 -161,-14z"></path></g></g></g></svg>