<svg version="1.1" xmlns="http://www.w3.org/2000/svg" xmlns:xlink="http://www.w3.org/1999/xlink" width="512.000000pt" height="512.000000pt" viewBox="0,0,256,256"><g fill="#9989f9" fill-rule="nonzero" stroke="none" stroke-width="1" stroke-linecap="butt" stroke-linejoin="miter" stroke-miterlimit="10" stroke-dasharray="" stroke-dashoffset="0" font-family="none" font-weight="none" font-size="none" text-anchor="none" style="mix-blend-mode: normal"><g transform="translate(0,-0.01628) scale(0.5,0.5)"><g transform="translate(0,512) scale(0.1,-0.1)"><path d="M345,4346c-84,-21 -147,-57 -211,-121c-65,-65 -105,-136 -123,-223c-16,-76 -16,-2810 0,-2884c37,-171 177,-311 347,-347c75,-16 4329,-16 4404,0c170,36 311,178 347,347c16,76 16,2810 0,2884c-37,172 -176,311 -347,347c-81,17 -4349,14 -4417,-3zM3635,3089c-534,-533 -982,-977 -997,-985c-35,-18 -121,-18 -156,0c-15,8 -463,452 -997,985l-970,971h2045h2045zM947,1913l-647,-648v1295v1295l647,-648l648,-647zM4820,2558v-1293l-647,647l-648,648l645,645c355,355 646,645 647,645c2,0 3,-582 3,-1292zM2039,2107c215,-213 243,-237 315,-273l80,-39h125c125,0 127,0 205,38c73,35 96,55 318,274l239,237l642,-642l642,-642h-2045h-2045l640,640c352,352 642,640 644,640c3,0 111,-105 240,-233z"></path></g></g></g></svg>