<svg version="1.1" xmlns="http://www.w3.org/2000/svg" xmlns:xlink="http://www.w3.org/1999/xlink" width="512.000000pt" height="512.000000pt" viewBox="0,0,256,256"><g fill="#9989f9" fill-rule="nonzero" stroke="none" stroke-width="1" stroke-linecap="butt" stroke-linejoin="miter" stroke-miterlimit="10" stroke-dasharray="" stroke-dashoffset="0" font-family="none" font-weight="none" font-size="none" text-anchor="none" style="mix-blend-mode: normal"><g transform="translate(0.09716,0.0792) scale(0.5,0.5)"><g transform="translate(0,512) scale(0.1,-0.1)"><path d="M2520,5014c-334,-29 -603,-97 -866,-219l-90,-42l-38,33c-54,47 -123,68 -205,62c-113,-8 -199,-67 -251,-170c-33,-67 -39,-147 -17,-222l12,-38l-122,-123c-110,-111 -123,-127 -123,-159c0,-25 7,-40 26,-55c49,-38 65,-30 193,99l119,120l54,-25c73,-34 181,-35 253,-1c51,23 108,72 136,115l15,24l100,-33c205,-68 443,-172 591,-258l72,-42l-6,-53c-4,-35 0,-73 11,-109l16,-56l-168,-169c-92,-92 -211,-222 -264,-288l-95,-120l-78,3c-70,3 -83,1 -141,-28c-37,-18 -76,-46 -92,-67c-15,-19 -34,-43 -42,-53c-13,-16 -42,-20 -215,-30c-227,-13 -376,-29 -589,-66c-144,-25 -149,-25 -159,-7c-14,24 -67,77 -91,90c-19,10 -18,16 28,156c41,127 133,329 221,488c31,55 23,89 -24,113c-60,32 -90,1 -195,-204c-64,-125 -136,-304 -166,-416l-23,-82l-56,-11c-160,-32 -263,-167 -248,-326c11,-114 80,-209 182,-252l42,-17l6,-146c24,-599 308,-1225 745,-1642c79,-76 81,-78 70,-109c-16,-46 -5,-157 21,-207c45,-88 138,-155 233,-168c69,-10 129,3 190,40l55,33l59,-30c211,-107 509,-194 779,-228c129,-16 451,-16 580,0c270,34 575,124 795,236l45,23l34,-29c75,-62 205,-78 297,-35c111,51 175,141 182,254c3,34 -1,82 -8,105l-11,43l103,105c381,387 611,846 694,1389c22,142 25,518 6,655c-47,327 -143,630 -277,867c-40,72 -44,83 -31,97c53,59 72,191 40,284c-21,62 -92,139 -156,171c-58,29 -150,35 -219,15l-38,-12l-79,72l-80,72l5,83c4,62 1,96 -11,134c-35,103 -144,189 -256,199c-79,7 -116,-1 -185,-42l-58,-36l-111,47c-221,93 -424,150 -646,180c-106,14 -398,25 -480,18zM2997,4845c207,-30 409,-87 590,-167l93,-40l-6,-42c-4,-22 -8,-42 -9,-44c-2,-2 -62,-23 -134,-48c-204,-69 -417,-166 -597,-270l-40,-24l-42,31c-105,77 -253,77 -359,0l-40,-29l-44,25c-176,102 -495,241 -681,297c-85,26 -88,28 -88,56c0,27 7,33 68,64c210,105 534,189 812,210c102,7 367,-3 477,-19zM1410,4682c105,-52 108,-207 6,-268c-47,-28 -117,-24 -160,10c-51,38 -69,79 -64,138c3,27 14,62 25,76c25,35 79,62 123,62c19,0 51,-8 70,-18zM4048,4680c96,-59 97,-207 2,-263c-34,-20 -100,-24 -141,-9c-59,23 -99,105 -85,173c19,98 139,151 224,99zM3751,4346c61,-66 127,-97 213,-98c67,-1 126,14 169,44c15,11 31,18 36,16c5,-2 37,-30 71,-62l62,-59l-24,-50c-18,-41 -23,-67 -22,-131c0,-99 29,-162 101,-225l47,-42l-38,-117c-86,-263 -205,-536 -343,-785c-75,-136 -78,-139 -106,-133c-16,3 -46,6 -66,6c-36,0 -36,1 -91,107c-174,340 -435,686 -708,942l-106,100l14,38c7,21 14,72 14,113l1,74l40,24c77,45 275,142 362,178c85,36 299,112 316,113c5,1 31,-23 58,-53zM4628,4140c130,-80 74,-280 -79,-280c-82,0 -149,68 -149,150c0,115 130,189 228,130zM2750,4128c54,-37 72,-70 72,-127c0,-90 -60,-154 -146,-154c-115,0 -187,113 -137,215c39,82 141,113 211,66zM2556,3719c66,-30 160,-29 237,0l57,23l94,-86c94,-87 227,-231 331,-361c94,-116 266,-382 335,-517c62,-121 64,-128 48,-145c-17,-16 -22,-15 -110,26c-333,155 -669,272 -998,346c-129,29 -400,75 -442,75c-21,0 -31,8 -44,33c-9,17 -27,46 -39,63l-23,30l91,115c90,112 386,419 405,419c5,0 31,-10 58,-21zM4712,3625c116,-219 198,-482 240,-770c20,-136 17,-493 -5,-635c-20,-123 -75,-349 -102,-418l-17,-42l-77,70c-138,127 -354,306 -476,394l-119,86l3,83c2,74 -1,88 -26,137c-16,30 -35,64 -42,76c-12,18 -6,34 68,166c135,243 258,525 349,800l45,137l41,4c22,2 48,3 56,3c8,-1 36,-42 62,-91zM1867,3120c37,-22 73,-86 73,-127c0,-46 -41,-114 -80,-135c-71,-37 -162,-15 -202,50c-43,70 -22,167 48,213c39,26 118,25 161,-1zM381,3004c42,-21 69,-73 69,-131c0,-193 -279,-206 -298,-13c-12,125 114,204 229,144zM1493,2924c4,-22 22,-65 40,-95l33,-54l-47,-100c-137,-295 -234,-636 -286,-1005c-14,-99 -18,-193 -18,-456v-332l-33,-21c-30,-20 -34,-20 -57,-5c-37,24 -176,181 -254,288c-277,374 -465,882 -488,1316l-6,115l53,24c96,43 159,127 168,223c5,55 -17,47 237,82c240,33 545,64 615,62c32,-1 35,-4 43,-42zM2340,2894c373,-68 771,-195 1108,-355l114,-54l1,-80c2,-63 7,-91 28,-132l25,-51l-104,-124c-196,-230 -480,-500 -718,-680c-310,-235 -698,-454 -1062,-599l-132,-53l-31,37c-35,43 -96,81 -155,96l-41,11l-6,82c-10,128 -8,420 4,548c32,351 124,706 265,1027l56,128h92c76,0 98,4 135,23c63,34 128,105 148,164l18,50l60,-7c33,-3 121,-17 195,-31zM3950,2530c89,-63 78,-207 -20,-257c-54,-28 -82,-29 -135,-3c-107,52 -114,203 -11,266c51,31 117,29 166,-6zM4173,2113c183,-132 379,-298 512,-432l79,-81l-37,-76c-112,-226 -314,-496 -484,-648l-42,-37l-41,21c-39,20 -42,24 -36,53c4,18 9,116 13,218l6,187l-26,26c-32,32 -71,33 -101,3c-21,-22 -23,-33 -30,-212c-3,-105 -9,-201 -12,-215c-4,-20 -17,-30 -57,-44c-37,-13 -69,-35 -108,-75c-68,-70 -92,-129 -88,-227l2,-67l-57,-29c-86,-43 -247,-104 -366,-138c-518,-149 -1094,-105 -1580,121l-88,41l5,57c3,31 8,59 12,62c3,4 71,32 151,64c482,192 952,480 1340,822c155,137 387,374 503,514l88,106l52,-14c28,-7 61,-13 73,-13c20,0 25,-10 44,-91c11,-50 30,-137 40,-193c23,-126 25,-132 59,-146c31,-12 68,-2 90,24c19,23 9,116 -33,301l-34,150l21,17c12,10 25,18 30,18c4,0 49,-30 100,-67zM1410,737c108,-57 108,-211 0,-268c-70,-38 -158,-11 -199,61c-36,64 -24,136 31,187c50,47 105,54 168,20zM4116,710c37,-36 54,-73 54,-122c0,-150 -200,-204 -281,-76c-16,26 -19,45 -16,92c3,54 7,62 46,99c42,39 44,39 106,35c51,-3 70,-9 91,-28z"></path></g></g></g></svg>