<svg version="1.1" xmlns="http://www.w3.org/2000/svg" xmlns:xlink="http://www.w3.org/1999/xlink" width="512.000000pt" height="512.000000pt" viewBox="0,0,256,256"><g fill="#9989f9" fill-rule="nonzero" stroke="none" stroke-width="1" stroke-linecap="butt" stroke-linejoin="miter" stroke-miterlimit="10" stroke-dasharray="" stroke-dashoffset="0" font-family="none" font-weight="none" font-size="none" text-anchor="none" style="mix-blend-mode: normal"><g transform="translate(0,-0.10184) scale(0.5,0.5)"><g transform="translate(0,512) scale(0.1,-0.1)"><path d="M2406,5110c-237,-38 -443,-140 -611,-305c-133,-130 -213,-255 -272,-425c-45,-128 -58,-209 -58,-365c1,-277 66,-454 264,-720c117,-156 180,-250 207,-310c17,-36 19,-75 21,-405c2,-201 6,-376 9,-390c6,-28 205,-234 246,-256c40,-21 657,-21 696,0c32,17 225,211 241,243c7,15 11,135 11,370c0,201 5,367 11,393c14,62 68,150 206,336c65,88 134,191 154,229c223,429 150,935 -186,1280c-158,162 -341,264 -560,311c-85,19 -298,26 -379,14zM2785,4890c313,-81 560,-328 646,-645c31,-114 32,-335 1,-450c-31,-115 -99,-243 -197,-375c-179,-238 -249,-359 -261,-452l-7,-48h-153h-154v427v427l94,96c52,53 98,108 101,123c19,76 -46,141 -122,122c-14,-3 -59,-38 -100,-77l-73,-71l-73,71c-41,39 -86,74 -100,77c-76,19 -141,-46 -122,-122c3,-15 49,-70 101,-123l94,-96v-427v-427h-154h-153l-7,48c-12,93 -82,214 -261,452c-98,132 -166,260 -197,375c-31,115 -30,336 1,450c92,341 366,595 709,660c104,20 282,13 387,-15zM2960,2620v-100h-400h-400v100v100h400h400zM2960,2292c0,-21 -17,-45 -73,-100l-72,-72h-255h-255l-72,72c-56,55 -73,79 -73,100v28h400h400z"></path><path d="M1063,4916c-23,-20 -28,-32 -28,-70c0,-57 11,-68 137,-140c115,-66 159,-73 202,-30c20,20 26,36 26,68c0,22 -7,49 -14,59c-7,9 -60,44 -117,77c-119,69 -159,76 -206,36z"></path><path d="M3851,4880c-57,-33 -110,-68 -117,-77c-7,-10 -14,-37 -14,-59c0,-56 37,-94 92,-94c51,0 232,101 260,145c40,64 -4,145 -80,145c-27,0 -65,-16 -141,-60z"></path><path d="M861,4106c-47,-26 -63,-84 -37,-135c22,-42 55,-51 186,-51c131,0 164,9 186,51c27,52 8,115 -41,137c-37,17 -263,15 -294,-2z"></path><path d="M3961,4106c-47,-26 -63,-84 -37,-135c22,-42 55,-51 186,-51c131,0 164,9 186,51c27,52 8,115 -41,137c-37,17 -263,15 -294,-2z"></path><path d="M1170,3334c-125,-73 -135,-83 -135,-140c0,-38 5,-50 28,-70c47,-40 87,-33 206,36c57,33 110,68 117,77c7,10 14,37 14,59c0,32 -6,48 -26,68c-43,43 -91,36 -204,-30z"></path><path d="M3746,3364c-20,-20 -26,-36 -26,-68c0,-22 7,-49 14,-59c7,-9 60,-44 117,-77c119,-69 159,-76 206,-36c23,20 28,32 28,70c0,57 -11,68 -137,140c-115,66 -159,73 -202,30z"></path><path d="M1555,1686c-158,-26 -237,-53 -529,-183c-295,-130 -474,-177 -731,-192l-138,-7l-28,-32l-29,-32v-168v-168l-35,-13c-61,-22 -65,-39 -65,-316c0,-267 4,-290 55,-313c20,-9 281,-12 1065,-12h1038l26,-44c68,-116 232,-206 376,-206c147,0 307,88 376,206l26,44h1039c1130,0 1081,-2 1107,55c8,18 12,102 12,271c0,275 -4,293 -65,315l-35,13v168v168l-29,32l-28,32l-138,7c-257,15 -436,62 -731,192c-236,105 -286,124 -389,152c-191,51 -378,57 -540,15c-100,-25 -241,-93 -321,-154c-68,-50 -215,-201 -254,-259c-14,-20 -27,-37 -30,-37c-3,0 -16,17 -30,37c-39,58 -186,209 -254,259c-80,61 -221,129 -321,155c-102,26 -290,33 -400,15zM1908,1476c187,-51 358,-185 497,-389l55,-82v-77c0,-43 -1,-78 -2,-78c-2,0 -28,10 -58,23l-55,22l-1022,3l-1023,3v102v103l143,17c236,28 390,75 697,212c303,135 429,168 610,160c58,-2 129,-11 158,-19zM3546,1485c123,-21 218,-54 436,-151c306,-136 486,-189 726,-215l112,-12v-103v-103l-1022,-3l-1023,-3l-55,-22c-30,-13 -56,-23 -57,-23c-2,0 -3,35 -3,78v77l57,85c141,207 333,353 513,389c30,6 64,13 75,15c47,9 159,5 241,-9zM2368,667c34,-18 65,-45 88,-78c42,-58 60,-69 109,-69c38,0 61,18 117,92c15,19 48,46 75,59l48,24l1058,3l1057,2v-125v-125h-1028c-922,0 -1030,-2 -1050,-16c-13,-9 -36,-44 -53,-80c-34,-72 -81,-116 -148,-139c-126,-43 -250,12 -310,139c-17,36 -40,71 -53,80c-20,14 -128,16 -1050,16h-1028v125v125l1058,-2l1057,-3z"></path></g></g></g></svg>