<svg version="1.1" xmlns="http://www.w3.org/2000/svg" xmlns:xlink="http://www.w3.org/1999/xlink" width="512.000000pt" height="512.000000pt" viewBox="0,0,256,256"><g fill="#9989f9" fill-rule="nonzero" stroke="none" stroke-width="1" stroke-linecap="butt" stroke-linejoin="miter" stroke-miterlimit="10" stroke-dasharray="" stroke-dashoffset="0" font-family="none" font-weight="none" font-size="none" text-anchor="none" style="mix-blend-mode: normal"><g transform="translate(0.09395,-0.04513) scale(0.5,0.5)"><g transform="translate(0,512) scale(0.1,-0.1)"><path d="M121,4520c-46,-11 -82,-40 -104,-81c-16,-32 -17,-138 -15,-1891l3,-1857l21,-28c12,-15 36,-37 55,-48c33,-20 55,-20 1129,-23c602,-2 1110,0 1128,3c65,12 93,78 52,123l-21,22h-1109h-1110v150v150h2410h2410v-150v-150h-1185h-1184l-21,-22c-41,-45 -13,-111 52,-123c18,-3 560,-5 1203,-3c1149,3 1171,3 1204,23c19,11 43,33 55,48l21,28v1869v1869l-21,28c-12,15 -36,37 -55,48c-34,20 -53,20 -2459,22c-1334,0 -2440,-3 -2459,-7zM4970,4145v-235h-1540c-1527,0 -1540,0 -1560,-20c-30,-30 -27,-83 6,-109c26,-21 37,-21 455,-21h429v-1285v-1285h-1305h-1305v1285v1285h746h746l30,30c24,25 29,36 24,58c-4,15 -16,35 -28,45c-19,16 -70,17 -769,17h-749v235v235h2410h2410zM4970,2475v-1285h-1030h-1030v1285v1285h1030h1030z"></path><path d="M3943,4208c-31,-15 -44,-57 -28,-95c14,-32 32,-43 71,-43c61,0 88,90 38,129c-29,23 -48,25 -81,9z"></path><path d="M4246,4199c-52,-41 -23,-129 44,-129c69,0 97,80 44,128c-31,27 -54,28 -88,1z"></path><path d="M4556,4199c-69,-54 6,-160 85,-118c48,25 44,105 -7,128c-35,16 -48,14 -78,-10z"></path><path d="M1355,3123c-20,-5 -861,-380 -926,-414c-66,-33 -88,-118 -46,-179c18,-27 54,-48 187,-110l165,-76l5,-251c6,-300 -3,-281 159,-344c278,-109 553,-130 825,-65c157,38 319,105 339,140c8,14 14,101 17,270l5,248l160,74c189,87 215,110 215,184c0,83 -4,86 -495,306c-242,108 -457,203 -479,210c-38,14 -92,16 -131,7zM1850,2793c231,-104 420,-191 420,-194c0,-12 -831,-389 -857,-389c-15,0 -215,87 -445,193c-307,141 -415,195 -404,201c39,26 824,374 844,375c12,1 211,-83 442,-186zM1125,2164c207,-97 211,-99 285,-99c73,0 80,2 245,79c94,43 194,89 223,102l52,24v-179v-180l-77,-29c-166,-64 -270,-83 -449,-83c-146,0 -284,26 -420,78l-94,36v179c0,140 3,179 13,175c6,-3 106,-49 222,-103z"></path><path d="M3220,3390c-30,-30 -27,-83 6,-109c15,-12 34,-21 44,-21c10,0 29,9 44,21c52,41 23,129 -44,129c-17,0 -39,-9 -50,-20z"></path><path d="M3495,3385c-14,-13 -25,-36 -25,-50c0,-14 11,-37 25,-50l24,-25h551h551l24,25c14,13 25,36 25,50c0,14 -11,37 -25,50l-24,25h-551h-551z"></path><path d="M3222,2954c-29,-20 -31,-83 -2,-109c48,-44 120,-10 120,56c0,43 -27,69 -70,69c-14,0 -36,-7 -48,-16z"></path><path d="M3491,2944c-12,-15 -21,-33 -21,-40c0,-26 23,-62 47,-73c16,-8 187,-11 554,-11c446,0 534,2 558,15c47,24 56,78 18,113l-23,22h-556h-557z"></path><path d="M3250,2533c-33,-12 -50,-37 -50,-74c0,-43 27,-69 70,-69c43,0 70,26 70,69c0,51 -47,90 -90,74z"></path><path d="M3514,2528c-22,-10 -44,-47 -44,-72c0,-7 9,-25 21,-40l20,-26h558h558l21,23c36,38 28,88 -19,112c-24,13 -112,15 -561,14c-345,0 -541,-4 -554,-11z"></path><path d="M3226,2079c-52,-41 -23,-129 44,-129c67,0 96,88 44,129c-15,12 -34,21 -44,21c-10,0 -29,-9 -44,-21z"></path><path d="M3495,2075c-14,-13 -25,-36 -25,-50c0,-14 11,-37 25,-50l24,-25h551h551l24,25c14,13 25,36 25,50c0,14 -11,37 -25,50l-24,25h-551h-551z"></path><path d="M3220,1640c-30,-30 -27,-83 6,-109c15,-12 34,-21 44,-21c10,0 29,9 44,21c52,41 23,129 -44,129c-17,0 -39,-9 -50,-20z"></path><path d="M3495,1635c-30,-29 -32,-64 -6,-96l19,-24l556,-3l556,-2l25,24c30,31 32,65 4,100l-20,26h-555h-555z"></path></g></g></g></svg>