<svg version="1.1" xmlns="http://www.w3.org/2000/svg" xmlns:xlink="http://www.w3.org/1999/xlink" width="800px" height="800px" viewBox="0,0,256,256"><g fill="#9989f9" fill-rule="nonzero" stroke="none" stroke-width="1" stroke-linecap="butt" stroke-linejoin="miter" stroke-miterlimit="10" stroke-dasharray="" stroke-dashoffset="0" font-family="none" font-weight="none" font-size="none" text-anchor="none" style="mix-blend-mode: normal"><g transform="scale(0.6944,0.6944)"><g id="XMLID_2_"><g><g><path d="M184.333,0c-82.323,0 -149.297,66.974 -149.297,149.297c0,33.969 11.132,65.96 32.193,92.515c27.27,34.383 106.572,116.021 109.934,119.479l7.169,7.375l7.17,-7.374c3.364,-3.46 82.69,-85.116 109.964,-119.51c21.042,-26.534 32.164,-58.514 32.164,-92.485c0,-82.323 -66.974,-149.297 -149.297,-149.297zM285.795,229.355c-21.956,27.687 -80.92,89.278 -101.462,110.581c-20.54,-21.302 -79.483,-82.875 -101.434,-110.552c-18.228,-22.984 -27.863,-50.677 -27.863,-80.087c0,-71.295 58.002,-129.297 129.297,-129.297c71.294,0 129.297,58.002 129.296,129.297c0,29.412 -9.625,57.096 -27.834,80.058z"></path><path d="M184.333,59.265c-48.73,0 -88.374,39.644 -88.374,88.374c0,48.73 39.645,88.374 88.374,88.374c48.729,0 88.374,-39.645 88.374,-88.374c0,-48.729 -39.644,-88.374 -88.374,-88.374zM184.333,216.013c-37.702,0 -68.374,-30.673 -68.374,-68.374c0,-37.702 30.673,-68.374 68.374,-68.374c37.701,0 68.373,30.673 68.374,68.374c0,37.702 -30.672,68.374 -68.374,68.374z"></path></g></g></g></g></g></svg>