<?xml version="1.0" standalone="no"?>
<!DOCTYPE svg PUBLIC "-//W3C//DTD SVG 20010904//EN"
 "http://www.w3.org/TR/2001/REC-SVG-20010904/DTD/svg10.dtd">
<svg version="1.0" xmlns="http://www.w3.org/2000/svg"
 width="512.000000pt" height="512.000000pt" viewBox="0 0 512.000000 512.000000"
 preserveAspectRatio="xMidYMid meet">

<g transform="translate(0.000000,512.000000) scale(0.100000,-0.100000)"
fill="#000000" stroke="none">
<path d="M3660 5101 c-327 -72 -574 -308 -662 -633 -18 -67 -22 -108 -22 -213
1 -143 16 -224 62 -334 38 -88 717 -1240 748 -1268 34 -31 74 -29 105 5 28 30
671 1115 725 1222 61 123 79 206 79 375 0 171 -17 250 -81 378 -115 229 -296
381 -541 453 -121 35 -293 42 -413 15z m318 -156 c46 -9 116 -34 172 -62 81
-39 108 -59 185 -137 104 -105 152 -189 186 -326 38 -150 17 -348 -51 -480
-25 -49 -619 -1053 -629 -1062 -8 -9 -617 1017 -654 1102 -41 93 -52 157 -51
285 1 101 5 133 27 200 37 112 90 197 177 286 168 171 399 241 638 194z"/>
<path d="M3765 4709 c-141 -20 -283 -129 -348 -266 -30 -65 -32 -74 -32 -188
0 -118 1 -121 37 -198 138 -289 513 -353 739 -128 201 201 176 528 -53 697
-95 70 -221 100 -343 83z m191 -179 c139 -60 213 -222 169 -365 -24 -74 -95
-154 -167 -186 -117 -52 -261 -20 -347 77 -49 56 -71 118 -71 204 0 90 41 175
112 231 27 21 53 39 56 39 4 1 30 7 57 15 59 17 132 11 191 -15z"/>
<path d="M1342 4124 c-67 -33 -117 -97 -132 -167 -7 -36 -9 -592 -8 -1815 l3
-1764 28 -24 28 -24 1299 0 1299 0 28 24 28 24 0 991 c0 977 0 991 -20 1010
-32 31 -85 31 -115 1 -20 -20 -20 -33 -20 -955 l0 -935 -240 0 -240 0 0 481
c0 350 -3 493 -12 523 -17 56 -90 128 -153 149 -43 15 -108 17 -555 17 -562 0
-561 0 -638 -66 -22 -19 -50 -53 -61 -77 -20 -42 -21 -57 -21 -535 l0 -492
-240 0 -240 0 2 1726 3 1726 28 24 28 24 660 0 661 0 30 30 c25 26 29 36 24
63 -3 18 -16 40 -27 50 -20 16 -68 17 -698 17 l-677 0 -52 -26z m1138 -3129
l0 -505 -240 0 -240 0 0 478 c0 368 3 482 13 494 27 34 52 37 260 38 l207 0 0
-505z m599 490 c16 -8 31 -22 35 -30 3 -9 6 -230 6 -491 l0 -474 -240 0 -240
0 0 505 0 505 205 0 c161 0 212 -3 234 -15z"/>
<path d="M1732 3693 c-7 -3 -19 -18 -27 -33 -12 -23 -15 -79 -15 -288 0 -247
1 -261 21 -286 l20 -26 300 0 c286 0 300 1 319 20 19 19 20 33 20 299 l0 280
-26 20 c-26 20 -38 21 -313 20 -157 0 -292 -3 -299 -6z m478 -318 l0 -165
-177 2 -178 3 -3 163 -2 162 180 0 180 0 0 -165z"/>
<path d="M2776 3679 l-26 -20 0 -280 c0 -266 1 -280 20 -299 18 -18 33 -20
188 -20 158 0 170 1 187 20 11 12 19 36 19 55 0 64 -22 75 -145 75 l-108 0 -3
221 -3 221 -28 24 c-34 29 -66 31 -101 3z"/>
<path d="M1719 2711 l-24 -19 0 -282 0 -282 24 -19 c22 -18 43 -19 315 -19
l293 0 21 23 c21 23 22 30 22 298 0 275 0 276 -23 297 -23 22 -29 22 -314 22
-271 0 -292 -1 -314 -19z m491 -301 l0 -160 -180 0 -180 0 0 160 0 160 180 0
180 0 0 -160z"/>
<path d="M2772 2707 c-21 -23 -22 -30 -22 -298 0 -275 0 -276 23 -297 23 -22
29 -22 316 -22 l292 0 24 25 25 24 0 271 0 271 -25 24 -24 25 -294 0 -294 0
-21 -23z m498 -297 l0 -160 -180 0 -180 0 0 160 0 160 180 0 180 0 0 -160z"/>
<path d="M540 1377 c-19 -6 -57 -34 -84 -62 -48 -48 -58 -70 -249 -535 -178
-434 -199 -491 -199 -542 0 -99 65 -190 159 -224 56 -20 4730 -20 4786 0 94
34 159 126 159 224 0 51 -22 110 -201 547 -196 478 -202 491 -250 535 -26 25
-66 51 -88 58 -25 7 -108 12 -215 12 -162 0 -177 -2 -202 -21 -35 -28 -36 -80
-1 -114 24 -25 27 -25 198 -25 152 0 178 -2 196 -17 26 -22 403 -935 404 -977
0 -20 -9 -37 -27 -53 l-27 -23 -2337 0 c-2127 0 -2340 1 -2360 16 -54 38 -56
30 153 542 108 262 203 484 211 492 12 12 53 16 200 20 180 5 186 6 205 29 26
32 24 77 -6 106 -24 25 -26 25 -207 24 -103 -1 -198 -6 -218 -12z"/>
</g>
</svg>
