<?xml version="1.0" standalone="no"?>
<!DOCTYPE svg PUBLIC "-//W3C//DTD SVG 20010904//EN"
 "http://www.w3.org/TR/2001/REC-SVG-20010904/DTD/svg10.dtd">
<svg version="1.0" xmlns="http://www.w3.org/2000/svg"
 width="512.000000pt" height="512.000000pt" viewBox="0 0 512.000000 512.000000"
 preserveAspectRatio="xMidYMid meet">

<g transform="translate(0.000000,512.000000) scale(0.100000,-0.100000)"
fill="#000000" stroke="none">
<path d="M2770 5102 c-98 -49 -107 -188 -15 -248 14 -9 82 -29 153 -45 214
-47 320 -82 512 -169 275 -125 519 -298 746 -531 328 -337 543 -741 643 -1210
27 -127 34 -143 73 -172 63 -46 140 -42 191 11 46 48 49 79 21 215 -200 984
-945 1798 -1909 2086 -110 33 -322 81 -357 81 -13 0 -39 -8 -58 -18z"/>
<path d="M839 4801 c-128 -41 -235 -130 -535 -448 -215 -227 -273 -342 -293
-571 -29 -326 81 -739 324 -1217 102 -202 148 -281 278 -475 490 -734 1133
-1319 1892 -1723 430 -229 794 -346 1125 -363 234 -13 442 53 598 188 19 16
134 131 256 257 202 207 225 235 264 312 75 150 76 285 1 439 -41 83 -51 94
-413 456 -351 352 -375 374 -447 408 -153 72 -310 65 -459 -21 -25 -15 -138
-118 -252 -231 l-207 -204 -99 53 c-440 232 -1018 814 -1232 1240 l-39 76 192
194 c205 207 255 269 288 363 44 128 35 250 -28 379 -33 66 -67 103 -407 443
-387 387 -418 413 -536 448 -72 21 -200 20 -271 -3z m224 -291 c62 -29 709
-679 736 -740 52 -115 30 -153 -244 -425 -123 -121 -230 -235 -240 -254 -28
-56 -16 -157 30 -255 129 -274 337 -550 654 -866 261 -261 529 -462 800 -601
113 -59 128 -64 185 -63 39 0 74 7 96 18 19 10 136 119 260 241 124 122 240
230 259 240 50 25 138 17 188 -18 71 -49 679 -669 703 -716 29 -58 29 -124 0
-182 -22 -42 -344 -380 -455 -476 -160 -140 -385 -157 -755 -57 -270 73 -687
275 -1030 499 -730 478 -1398 1251 -1736 2010 -217 488 -270 862 -156 1095 20
42 81 110 257 288 145 148 247 243 275 257 56 30 117 31 173 5z"/>
<path d="M2722 4170 c-68 -42 -92 -132 -52 -197 28 -46 52 -58 173 -88 277
-68 500 -195 689 -394 179 -187 300 -413 353 -656 21 -94 35 -126 71 -154 81
-64 211 -17 229 83 15 76 -60 337 -147 510 -223 450 -627 774 -1113 892 -121
29 -160 30 -203 4z"/>
</g>
</svg>
