<svg version="1.1" xmlns="http://www.w3.org/2000/svg" xmlns:xlink="http://www.w3.org/1999/xlink" width="512.000000pt" height="512.000000pt" viewBox="0,0,256,256"><g fill="#9989f9" fill-rule="nonzero" stroke="none" stroke-width="1" stroke-linecap="butt" stroke-linejoin="miter" stroke-miterlimit="10" stroke-dasharray="" stroke-dashoffset="0" font-family="none" font-weight="none" font-size="none" text-anchor="none" style="mix-blend-mode: normal"><g transform="translate(0,0)"><g><g transform="translate(0.03896,0.05975) scale(0.5,0.5)"><g transform="translate(0,512) scale(0.1,-0.1)"><path d="M2770,5102c-98,-49 -107,-188 -15,-248c14,-9 82,-29 153,-45c214,-47 320,-82 512,-169c275,-125 519,-298 746,-531c328,-337 543,-741 643,-1210c27,-127 34,-143 73,-172c63,-46 140,-42 191,11c46,48 49,79 21,215c-200,984 -945,1798 -1909,2086c-110,33 -322,81 -357,81c-13,0 -39,-8 -58,-18z"></path><path d="M839,4801c-128,-41 -235,-130 -535,-448c-215,-227 -273,-342 -293,-571c-29,-326 81,-739 324,-1217c102,-202 148,-281 278,-475c490,-734 1133,-1319 1892,-1723c430,-229 794,-346 1125,-363c234,-13 442,53 598,188c19,16 134,131 256,257c202,207 225,235 264,312c75,150 76,285 1,439c-41,83 -51,94 -413,456c-351,352 -375,374 -447,408c-153,72 -310,65 -459,-21c-25,-15 -138,-118 -252,-231l-207,-204l-99,53c-440,232 -1018,814 -1232,1240l-39,76l192,194c205,207 255,269 288,363c44,128 35,250 -28,379c-33,66 -67,103 -407,443c-387,387 -418,413 -536,448c-72,21 -200,20 -271,-3zM1063,4510c62,-29 709,-679 736,-740c52,-115 30,-153 -244,-425c-123,-121 -230,-235 -240,-254c-28,-56 -16,-157 30,-255c129,-274 337,-550 654,-866c261,-261 529,-462 800,-601c113,-59 128,-64 185,-63c39,0 74,7 96,18c19,10 136,119 260,241c124,122 240,230 259,240c50,25 138,17 188,-18c71,-49 679,-669 703,-716c29,-58 29,-124 0,-182c-22,-42 -344,-380 -455,-476c-160,-140 -385,-157 -755,-57c-270,73 -687,275 -1030,499c-730,478 -1398,1251 -1736,2010c-217,488 -270,862 -156,1095c20,42 81,110 257,288c145,148 247,243 275,257c56,30 117,31 173,5z"></path><path d="M2722,4170c-68,-42 -92,-132 -52,-197c28,-46 52,-58 173,-88c277,-68 500,-195 689,-394c179,-187 300,-413 353,-656c21,-94 35,-126 71,-154c81,-64 211,-17 229,83c15,76 -60,337 -147,510c-223,450 -627,774 -1113,892c-121,29 -160,30 -203,4z"></path></g></g></g></g></g></svg>