<svg version="1.1" xmlns="http://www.w3.org/2000/svg" xmlns:xlink="http://www.w3.org/1999/xlink" width="512.000000pt" height="512.000000pt" viewBox="0,0,256,256"><g fill="#9989f9" fill-rule="nonzero" stroke="none" stroke-width="1" stroke-linecap="butt" stroke-linejoin="miter" stroke-miterlimit="10" stroke-dasharray="" stroke-dashoffset="0" font-family="none" font-weight="none" font-size="none" text-anchor="none" style="mix-blend-mode: normal"><g transform="translate(0.05,-0.08983) scale(0.5,0.5)"><g transform="translate(0,512) scale(0.1,-0.1)"><path d="M4063,4746c-388,-74 -670,-366 -733,-758l-13,-78h-211c-230,0 -282,-8 -382,-57c-31,-15 -80,-50 -110,-79l-54,-52l-51,49c-58,56 -141,102 -226,124c-84,22 -1540,22 -1582,1c-45,-24 -51,-51 -51,-251v-185h-185c-121,0 -193,-4 -210,-12c-57,-26 -55,-1 -55,-843v-776l-41,-60c-56,-82 -104,-188 -130,-284c-32,-115 -32,-335 0,-450c86,-317 329,-560 646,-646c115,-32 335,-32 450,0c130,35 257,101 359,188l40,33h317h317l26,-44c68,-116 232,-206 376,-206c146,0 308,89 377,207l25,43h939c1021,0 981,-2 1007,55c9,20 12,339 12,1326v1300l41,60c56,82 104,188 130,284c18,65 22,107 22,225c0,118 -4,160 -22,225c-86,317 -333,564 -646,645c-103,27 -284,35 -382,16zM4357,4545c50,-9 112,-31 173,-61c79,-39 110,-62 181,-133c72,-72 94,-102 132,-181c102,-209 102,-411 0,-620c-38,-79 -60,-109 -132,-181c-72,-72 -102,-94 -181,-132c-208,-101 -407,-102 -620,-2l-98,46l-97,-17c-53,-9 -99,-14 -102,-11c-3,3 2,49 11,103l17,97l-41,84c-105,217 -106,426 -4,633c39,79 62,110 133,181c71,71 102,94 181,133c147,72 286,91 447,61zM2260,3694c41,-12 67,-29 111,-73c95,-95 89,-24 89,-1083c0,-505 -3,-918 -6,-918c-3,0 -18,8 -32,19c-15,10 -54,29 -87,42c-57,23 -73,24 -352,27c-161,2 -293,6 -293,10c0,4 9,59 20,122c27,157 26,191 -5,223c-14,13 -36,27 -48,29c-13,3 -90,-6 -171,-20l-147,-24l-68,31c-94,43 -209,71 -323,78l-98,6v774v773h678c591,0 685,-2 732,-16zM3351,3631c10,-41 33,-105 50,-142l31,-68l-21,-131c-28,-174 -27,-201 4,-233c14,-13 36,-27 48,-29c12,-2 89,6 171,20l149,24l67,-31c93,-43 208,-71 323,-78l97,-6v-623v-623l-712,-3l-713,-3l-60,-24c-33,-13 -72,-32 -87,-42c-14,-11 -29,-19 -32,-19c-3,0 -6,413 -6,918c0,1059 -6,988 89,1083c83,83 106,88 370,86l213,-2zM650,2692v-569l-41,-12c-22,-7 -79,-32 -125,-56l-84,-43v624v624h125h125zM4720,1960v-1150h-928c-831,0 -930,-2 -950,-16c-13,-9 -36,-44 -53,-80c-34,-72 -81,-116 -148,-139c-126,-43 -250,12 -310,139c-47,100 -31,96 -363,96h-288l26,53c15,28 37,84 50,122l22,70h269h268l53,-28c34,-18 65,-45 88,-78c42,-58 60,-69 109,-69c38,0 61,18 117,92c15,19 48,46 75,59l48,24l800,5c440,3 808,9 818,14c48,23 47,3 47,993v928l63,23c34,12 89,38 122,56c33,19 61,35 63,35c1,1 2,-516 2,-1149zM1082,1936c31,-8 94,-34 141,-56l84,-41l97,17c54,9 100,14 103,11c3,-3 -2,-49 -11,-102l-17,-97l46,-98c100,-213 99,-412 -2,-620c-38,-79 -60,-109 -132,-181c-72,-72 -102,-94 -181,-132c-209,-102 -411,-102 -620,0c-79,38 -109,60 -181,132c-71,71 -94,102 -133,181c-50,102 -76,208 -76,310c0,102 26,208 76,310c39,79 62,110 133,181c71,71 102,94 181,133c52,26 127,53 165,61c85,17 245,13 327,-9zM2260,1494c75,-22 162,-109 184,-184c14,-47 21,-100 14,-100c-2,0 -28,10 -58,22c-51,21 -74,23 -325,26l-271,4l-12,96c-7,53 -15,109 -18,125l-6,27h219c171,0 231,-3 273,-16zM4270,1385v-124l-747,-3l-748,-3l-55,-22c-30,-13 -56,-23 -57,-23c-8,0 -1,53 13,100c12,41 29,67 73,111c92,92 50,87 839,88l682,1z"></path><path d="M3898,4150c-27,-27 -30,-36 -25,-71c7,-50 29,-76 76,-89c20,-5 142,-10 271,-10c129,0 251,5 271,10c52,15 74,43 74,97c0,37 -5,49 -28,69l-28,24h-290h-291z"></path><path d="M3898,3700c-27,-27 -30,-36 -25,-71c11,-80 53,-99 222,-99c175,0 220,22 220,107c0,37 -5,49 -28,69c-27,23 -33,24 -193,24h-166z"></path><path d="M1141,3444c-25,-21 -31,-33 -31,-66c0,-50 13,-74 50,-93c25,-13 99,-15 495,-15c396,0 470,2 495,15c37,19 50,43 50,93c0,33 -6,45 -31,66l-31,26h-483h-483z"></path><path d="M1136,3004c-55,-55 -23,-152 55,-168c41,-8 887,-8 928,0c78,16 110,113 55,168l-27,26h-492h-492z"></path><path d="M1158,2584c-35,-19 -48,-43 -48,-92c0,-33 6,-45 31,-66l31,-26h483h483l31,26c25,21 31,33 31,66c0,50 -13,74 -50,93c-43,22 -951,22 -992,-1z"></path><path d="M2968,2584c-35,-19 -48,-43 -48,-92c0,-33 6,-45 31,-66l31,-26h483h483l31,26c25,21 31,33 31,66c0,50 -13,74 -50,93c-43,22 -951,22 -992,-1z"></path><path d="M2974,2150c-56,-23 -72,-108 -30,-157l24,-28h497h497l24,28c33,38 33,96 0,134l-24,28l-484,2c-265,1 -493,-2 -504,-7z"></path><path d="M578,1550c-27,-27 -30,-36 -25,-71c7,-50 29,-76 76,-89c20,-5 142,-10 271,-10c129,0 251,5 271,10c52,15 74,43 74,97c0,37 -5,49 -28,69l-28,24h-290h-291z"></path><path d="M578,1100c-27,-27 -30,-36 -25,-71c11,-80 53,-99 222,-99c175,0 220,22 220,107c0,37 -5,49 -28,69c-27,23 -33,24 -193,24h-166z"></path></g></g></g></svg>