<svg version="1.1" xmlns="http://www.w3.org/2000/svg" xmlns:xlink="http://www.w3.org/1999/xlink" width="512.000000pt" height="512.000000pt" viewBox="0,0,256,256"><g fill="#5d0c7e" fill-rule="nonzero" stroke="none" stroke-width="1" stroke-linecap="butt" stroke-linejoin="miter" stroke-miterlimit="10" stroke-dasharray="" stroke-dashoffset="0" font-family="none" font-weight="none" font-size="none" text-anchor="none" style="mix-blend-mode: normal"><g transform="translate(0,-0.06637) scale(0.5,0.5)"><g transform="translate(0,512) scale(0.1,-0.1)"><path d="M2405,5106c-507,-101 -810,-611 -653,-1096c87,-270 295,-471 575,-557c78,-23 104,-26 233,-26c129,0 155,3 233,26c291,89 495,293 584,584c23,78 26,104 26,233c0,129 -3,155 -26,233c-89,291 -296,498 -584,583c-110,32 -282,41 -388,20z"></path><path d="M1800,3244c-124,-60 -275,-157 -355,-228l-50,-44l25,-10c383,-146 1130,-422 1142,-422c11,0 913,334 1133,420l30,12l-49,44c-74,68 -228,166 -356,228c-63,31 -121,56 -128,56c-7,0 -49,-20 -95,-44c-327,-177 -722,-179 -1062,-6c-54,27 -103,50 -109,50c-6,0 -63,-25 -126,-56z"></path><path d="M879,2777c-62,-41 -69,-69 -69,-274v-183h45c211,0 400,-152 444,-358c14,-69 15,-514 0,-584c-16,-77 -74,-180 -129,-232c-82,-77 -205,-126 -315,-126h-45v-170c0,-183 7,-216 51,-257c14,-12 339,-139 784,-306l760,-285l3,1131c1,622 -1,1134 -5,1138c-5,4 -322,124 -706,268c-515,192 -710,261 -741,261c-28,0 -55,-8 -77,-23z"></path><path d="M3415,2535l-700,-263l-3,-1136l-2,-1136l77,29c778,288 1453,547 1472,564c44,41 51,74 51,257v170h-45c-211,0 -400,152 -444,358c-15,69 -15,514 0,584c19,88 58,158 124,223c88,87 201,135 320,135h45v183c0,205 -7,233 -69,274c-65,44 -71,42 -826,-242z"></path><path d="M663,2005c-102,-31 -176,-96 -222,-195c-22,-46 -26,-69 -26,-140c0,-76 4,-93 33,-152c38,-77 92,-130 171,-166c46,-22 74,-27 162,-30c128,-5 176,13 209,78c18,36 20,58 20,270c0,212 -2,234 -20,270c-31,61 -78,80 -192,79c-51,0 -112,-6 -135,-14z"></path><path d="M4188,2000c-23,-12 -46,-36 -58,-60c-18,-36 -20,-59 -20,-270c0,-212 2,-234 20,-270c33,-65 81,-83 210,-78c95,3 112,6 172,36c77,38 130,92 167,171c22,47 26,70 26,141c0,71 -4,94 -26,141c-37,79 -90,133 -167,171c-61,30 -75,33 -177,36c-95,2 -115,-1 -147,-18z"></path></g></g></g></svg>