<svg version="1.1" xmlns="http://www.w3.org/2000/svg" xmlns:xlink="http://www.w3.org/1999/xlink" width="512.000000pt" height="512.000000pt" viewBox="0,0,256,256"><g fill="#9989f9" fill-rule="nonzero" stroke="none" stroke-width="1" stroke-linecap="butt" stroke-linejoin="miter" stroke-miterlimit="10" stroke-dasharray="" stroke-dashoffset="0" font-family="none" font-weight="none" font-size="none" text-anchor="none" style="mix-blend-mode: normal"><g transform="translate(0.02333,0.125) scale(0.5,0.5)"><g transform="translate(0,512) scale(0.1,-0.1)"><path d="M1045,5102c-94,-32 -162,-104 -191,-198c-8,-29 -14,-91 -14,-160v-113l-83,-39c-403,-189 -691,-587 -747,-1034c-20,-162 -9,-221 45,-246c19,-9 189,-12 656,-12c684,0 672,-1 697,55c9,19 12,189 12,656c0,693 2,673 -61,699c-26,11 -55,11 -153,2c-66,-7 -132,-15 -145,-18l-23,-7l3,86c4,79 6,89 32,114l27,28l1455,3l1454,2l3,-342c3,-389 4,-394 88,-478c84,-84 89,-85 478,-88l342,-3l-2,-1874l-3,-1875l-28,-27l-27,-28h-1880h-1880l-27,28l-28,27l-5,469c-5,514 -2,490 -68,518c-30,12 -38,12 -70,-4c-20,-10 -43,-29 -49,-43c-10,-19 -13,-133 -11,-500c3,-462 4,-476 24,-521c28,-60 93,-125 153,-153l46,-21h1915h1915l46,21c60,28 125,93 153,153l21,46l3,1945c1,1070 0,1956 -3,1970c-7,26 -867,898 -939,951l-39,29h-1521c-1416,-1 -1524,-2 -1571,-18zM4548,4212c-123,-2 -237,0 -254,3c-17,3 -42,17 -55,31c-24,25 -24,27 -27,277l-3,252l281,-280l280,-280zM1220,4005v-505h-506h-507l6,58c9,81 52,223 97,319c119,253 338,459 603,564c73,30 225,68 270,69h37z"></path><path d="M1624,4342c-12,-9 -27,-27 -33,-39c-8,-15 -11,-192 -11,-592v-571h-571c-400,0 -577,-3 -592,-11c-60,-31 -71,-105 -42,-284c89,-554 493,-980 1038,-1097c134,-28 379,-31 509,-5c540,108 947,515 1055,1055c26,130 23,375 -5,509c-117,545 -543,949 -1097,1038c-125,21 -224,19 -251,-3zM1920,4133c140,-28 341,-121 440,-203l35,-29l-307,-308l-308,-308v437v438l33,-6c17,-3 66,-12 107,-21zM2604,3671c196,-297 245,-638 140,-973c-106,-335 -387,-616 -722,-722c-497,-157 -1031,42 -1300,484c-75,125 -137,299 -155,437l-5,43l579,2l579,3l407,407c315,315 410,405 420,396c7,-6 33,-40 57,-77z"></path><path d="M3315,3721c-62,-26 -79,-112 -31,-159l26,-27l638,-3c668,-3 677,-2 707,42c17,24 20,79 5,107c-27,49 -24,49 -697,48c-345,0 -637,-4 -648,-8z"></path><path d="M3315,3241c-62,-26 -79,-112 -31,-159l26,-27l638,-3c668,-3 677,-2 707,42c17,24 20,79 5,107c-27,49 -24,49 -697,48c-345,0 -637,-4 -648,-8z"></path><path d="M3315,2761c-62,-26 -79,-112 -31,-159l26,-27l292,-3c317,-3 338,0 363,49c18,34 19,60 3,94c-24,52 -43,55 -350,54c-156,0 -292,-4 -303,-8z"></path><path d="M4295,2759c-74,-43 -73,-140 4,-179c72,-37 159,47 127,123c-7,18 -20,38 -29,45c-22,18 -78,24 -102,11z"></path><path d="M4285,1947c-149,-59 -230,-202 -195,-347l13,-52l-288,-288l-287,-287l-46,13c-58,18 -119,18 -169,0l-40,-14l-192,192l-191,192l10,54c34,179 -106,349 -287,350c-201,0 -346,-186 -293,-376l13,-46l-183,-183l-182,-182l-46,13c-104,32 -214,3 -292,-76c-117,-116 -118,-298 -4,-415c133,-137 346,-119 459,39c55,78 65,169 30,281c-5,16 29,55 174,199l180,180l43,-13c58,-18 155,-16 202,4l39,17l185,-185l185,-185l-13,-46c-38,-138 29,-290 158,-353c149,-73 335,-3 403,152c25,56 29,159 10,209c-12,30 -12,30 275,317l288,288l35,-15c20,-9 66,-16 103,-16c116,0 218,65 270,171c34,69 32,187 -4,257c-34,64 -105,128 -165,148c-54,18 -155,20 -198,3zM4445,1736c46,-46 43,-112 -8,-149c-50,-38 -122,-17 -147,42c-38,92 85,177 155,107zM2673,1535c31,-32 39,-71 22,-112c-16,-38 -45,-55 -93,-55c-48,0 -92,47 -92,98c0,81 105,126 163,69zM1902,771c68,-61 28,-166 -63,-166c-34,0 -46,6 -70,33c-83,93 40,216 133,133zM3461,772c78,-70 8,-193 -92,-163c-85,25 -93,136 -14,179c35,19 73,14 106,-16z"></path><path d="M905,1611c-64,-27 -81,-110 -32,-158c60,-61 162,-19 162,67c0,66 -72,116 -130,91z"></path></g></g></g></svg>