<svg version="1.1" xmlns="http://www.w3.org/2000/svg" xmlns:xlink="http://www.w3.org/1999/xlink" width="512.000000pt" height="512.000000pt" viewBox="0,0,256,256"><g fill="#9989f9" fill-rule="nonzero" stroke="none" stroke-width="1" stroke-linecap="butt" stroke-linejoin="miter" stroke-miterlimit="10" stroke-dasharray="" stroke-dashoffset="0" font-family="none" font-weight="none" font-size="none" text-anchor="none" style="mix-blend-mode: normal"><g transform="translate(-0.03449,0.02159) scale(0.5,0.5)"><g transform="translate(0,512) scale(0.1,-0.1)"><path d="M600,5069c-208,-41 -392,-212 -445,-414c-8,-34 -15,-101 -15,-155c0,-119 35,-227 103,-323c225,-314 699,-315 923,-2c124,175 141,410 42,599c-46,86 -165,203 -250,244c-112,55 -244,73 -358,51zM775,4909c129,-24 239,-108 298,-228c30,-61 32,-72 32,-171c0,-102 -1,-109 -38,-182c-90,-182 -287,-268 -479,-208c-119,37 -200,109 -255,226c-25,53 -28,70 -28,164c0,98 2,110 32,170c57,116 161,199 283,226c71,16 85,16 155,3z"></path><path d="M1876,5065c-54,-19 -107,-64 -136,-116l-25,-44l-3,-545c-2,-300 0,-559 3,-577c13,-74 93,-123 166,-103c22,6 85,54 174,132l140,123l475,5c463,5 476,6 515,27c22,12 54,36 72,55c63,65 63,68 63,488c0,420 0,423 -63,488c-18,19 -50,43 -72,55c-40,22 -46,22 -655,24c-505,2 -622,0 -654,-12zM3113,4908c46,-24 46,-24 47,-399v-356l-26,-24l-26,-24l-476,-5c-419,-4 -481,-7 -507,-22c-16,-9 -79,-59 -140,-112l-110,-96l-3,492c-2,532 -3,526 51,548c35,14 1164,12 1190,-2z"></path><path d="M2105,4715c-33,-32 -34,-83 -2,-113c23,-22 26,-22 421,-22h397l24,25c40,39 32,96 -16,120c-23,12 -95,15 -414,15h-386z"></path><path d="M2100,4418c-25,-28 -26,-78 -1,-109c19,-24 22,-24 230,-27l211,-3l31,31c26,26 30,36 25,63c-12,64 -24,67 -262,67c-206,0 -214,-1 -234,-22z"></path><path d="M4294,5065c-200,-43 -377,-213 -429,-412c-41,-155 -8,-339 85,-471c266,-379 849,-297 1001,141c24,68 29,99 29,177c0,174 -47,287 -170,410c-141,142 -324,197 -516,155zM4485,4909c127,-23 239,-109 298,-229c30,-60 32,-72 32,-170c0,-97 -2,-110 -32,-172c-93,-197 -312,-286 -516,-208c-111,42 -192,126 -238,250c-17,45 -20,72 -17,146c3,77 9,101 35,155c57,115 161,198 283,225c71,16 85,16 155,3z"></path><path d="M415,3723c-136,-42 -238,-156 -264,-298c-6,-33 -43,-483 -82,-1000c-77,-1021 -77,-1007 -27,-1117c53,-114 154,-207 269,-247c32,-12 172,-35 335,-55c153,-20 296,-39 317,-42l37,-6v-433c0,-481 -2,-468 67,-481c27,-5 37,-1 63,24l30,30v471c0,273 -4,480 -10,495c-5,14 -18,29 -28,35c-11,6 -176,30 -368,55c-192,25 -365,51 -384,57c-75,26 -140,82 -175,150c-38,73 -38,83 39,1090c66,860 76,970 94,1005c26,51 56,78 116,105c81,35 193,12 253,-53c11,-12 119,-183 238,-378c119,-195 225,-364 236,-374c12,-13 31,-19 51,-19c18,1 208,72 423,158c379,153 392,157 451,153c74,-5 130,-37 171,-99c35,-53 43,-140 19,-204c-33,-86 -50,-95 -597,-313c-277,-111 -523,-205 -546,-210c-79,-18 -172,16 -221,79c-11,13 -77,119 -147,234c-70,116 -136,218 -147,228c-29,25 -80,22 -106,-6c-40,-43 -31,-68 113,-302l134,-220l1,-193c0,-222 7,-253 62,-270c18,-6 182,-27 363,-48c229,-25 347,-43 384,-57c74,-27 141,-95 170,-170c21,-57 21,-67 21,-728v-671l30,-30c26,-25 36,-29 63,-24c18,3 40,16 50,28c17,20 17,62 15,727l-3,706l-28,60c-63,134 -166,226 -296,265c-37,11 -194,34 -361,53l-295,33l-3,83c-3,75 -1,83 14,77c51,-20 113,-28 172,-23c57,4 142,35 590,215c288,116 542,222 566,236c123,72 197,231 176,378c-18,126 -104,243 -218,296c-51,24 -69,27 -162,27h-105l-353,-143c-193,-78 -356,-142 -361,-142c-4,0 -98,147 -207,327c-211,347 -259,410 -346,451c-95,44 -202,53 -293,25z"></path><path d="M4485,3676c-170,-41 -216,-92 -483,-534c-118,-193 -217,-352 -221,-352c-3,0 -191,-26 -417,-59c-463,-66 -486,-72 -574,-161c-101,-100 -136,-246 -96,-392l8,-28h-487h-487l-29,-29c-16,-16 -29,-37 -29,-46c0,-24 27,-72 45,-79c9,-3 176,-6 371,-6h354v-949c0,-889 1,-950 18,-970c9,-11 31,-24 49,-27c27,-5 37,-1 63,24l30,30v946v946h114c96,0 120,-3 148,-20c57,-33 119,-50 187,-51c57,-1 292,29 932,121c75,11 148,24 163,30c15,5 29,10 32,10c3,0 4,-37 2,-82l-3,-82l-285,-33c-157,-17 -308,-37 -337,-43c-136,-29 -254,-124 -320,-256l-38,-78l-3,-706c-2,-666 -2,-708 15,-728c10,-12 32,-25 50,-28c27,-5 37,-1 63,24l30,30v671c0,661 0,671 21,728c29,75 97,143 170,170c37,14 157,32 384,57c182,20 345,42 363,48c55,17 62,48 62,270l1,193l134,220c97,158 135,228 135,250c0,62 -81,98 -128,58c-11,-10 -79,-116 -152,-235c-72,-119 -145,-230 -162,-247c-60,-58 -20,-50 -728,-152c-190,-27 -367,-49 -393,-49c-84,0 -164,50 -198,125c-24,52 -24,138 0,191c21,45 80,99 126,114c16,5 210,34 430,65c285,40 413,61 445,76c44,20 52,31 265,382c121,199 237,381 258,403c110,121 308,119 420,-5c44,-49 65,-97 72,-165c3,-28 23,-442 45,-921c29,-648 37,-881 29,-915c-22,-96 -99,-184 -188,-215c-25,-9 -199,-34 -386,-55c-187,-22 -350,-45 -362,-51c-12,-7 -27,-26 -32,-43c-5,-17 -12,-242 -15,-499l-6,-469l30,-30c26,-25 36,-29 63,-24c56,11 63,29 70,188c4,78 7,277 7,441c0,193 4,297 10,297c6,0 145,16 311,35c194,23 320,42 357,55c155,55 275,195 303,357c8,46 1,265 -30,959c-23,494 -45,923 -51,951c-15,84 -58,162 -124,229c-114,113 -268,157 -421,120z"></path></g></g></g></svg>